/* XPM */
static char *_8a8612d60f04ffbc6f0cdce875f1096YkvNsMZjw53tTBAC[] = {
/* columns rows colors chars-per-pixel */
"64 64 92 1 ",
"  c #534957",
". c #564B57",
"X c #574C56",
"o c #5A4B57",
"O c #5B4D55",
"+ c #594C57",
"@ c #564B59",
"# c #564D58",
"$ c #584D59",
"% c #5C4E5B",
"& c #5D5165",
"* c #615364",
"= c #625765",
"- c #655664",
"; c #645665",
": c #665664",
"> c #675767",
", c #6A5667",
"< c #6A5867",
"1 c #6E5C64",
"2 c #6A5768",
"3 c #685B69",
"4 c #6A586C",
"5 c #735A6B",
"6 c #715C6B",
"7 c #705D6B",
"8 c #6F6167",
"9 c #69606C",
"0 c #736567",
"q c #75666D",
"w c #806F6D",
"e c #806972",
"r c #836972",
"t c #816B72",
"y c #836A74",
"u c #846974",
"i c #846A75",
"p c #896E73",
"a c #896B74",
"s c #837777",
"d c #847774",
"f c #8C7174",
"g c #8D7275",
"h c #8C7477",
"j c #837877",
"k c #8B7A72",
"l c #8B7A73",
"z c #8E7A73",
"x c #8F7B74",
"c c #8E7B77",
"v c #8E7C76",
"b c #837779",
"n c #83777A",
"m c #8F7178",
"M c #8E7878",
"N c #907277",
"B c #927575",
"V c #927676",
"C c #937777",
"Z c #947577",
"A c #947677",
"S c #907B76",
"D c #977877",
"F c #957A77",
"G c #967B77",
"H c #907278",
"J c #937579",
"K c #947579",
"L c #957679",
"P c #94757A",
"I c #90727C",
"U c #967978",
"Y c #967A79",
"T c #977B79",
"R c #9B7E7A",
"E c #9C7E7A",
"W c #9C827A",
"Q c #9C8583",
"! c #A48982",
"~ c #A68B83",
"^ c #A58C84",
"/ c #A98D82",
"( c #A89085",
") c #AA9085",
"_ c #AB9286",
"` c #AB9386",
"' c #AD9387",
"] c #AC9389",
"[ c #AD9488",
"{ c #B3998B",
"} c #B39D92",
"| c #B49F93",
/* pixels */
"))M{/)))b]`)[q{/))l{/[))b])))w['//M{[)))s)))[w`[))l{)))/b]]``q['",
"JA7^JJUKbVJKF3EGKA7^KPUPbVJCJ<WKKK7^JVGJbFKKU3RJKA4/JKGKbVJUU3EK",
"::*q::3:9---:&3:::*q::::9:*-,&3:::>q**:23-&::&3:::*q::3:3:*>:&3:",
"/UUUUsUGUF1WUUUK/KGGUjTTUR1WAGUK/GUCGbUUFR1WUUAK/UTTKsGGGG1WDAUU",
"~JAKKsVKHV2EKHKH~VJKJbVJJC2EHKAN~JJKKbFJgJ2RJJAH^KJJKdAKJV,EKKVH",
"++#%@%o#@%#@#@o%o%.%%%####@#@@+@+o@%%%X.@%%.#.++O@.%X%@#@%#@##o@",
"AA7!JKKKbNKHA,RVKV5~VVJJnVJVV2EKJV1~KKJJbVVJV2RJAK5~JKKJbVKKV,EK",
"NN5~gHHHdgHNN3Ggmg5~HHmmbgHHg2UgHg5~JHHgdgHmm2UgHN5~gHKmdfHHH2Gg",
"Slxxl0MvSF0FllFkxxvxl0xxxF0xSllxFxxll8vxxS0JzzzzSlSlx8vvzx0Fxxlz",
"^JFJJbCKVV3EKKJg^KCKJbJUJK2WKKKP^JVKPjJJJv3RAABm^FKKJbJKJJ2EmJJm",
"Qyyyybtuyy3htyyqQiyyybytyy3mqpyqQyuyujtiuy4gwyyyQuyytbuyyy3hqfty",
"))M{))))b'/][w['))h{/)))b[``[w''))M{[)))b['){q'[))M{))))b[/[{q[)",
"JK7^JJJKbVJVV3EKKK7^JAKKbJJFV<EKJK7^JFKKbVJJl2WKKK7^JJJKbVAHG3RK",
"::*q:::-3::::&3:::*q::3:3:&:,&3*--*q::--3:::,&3*::*q::::3::::&3*",
"UUUUg}FUUGoGDDGpGUKGg}GGGG%GADGpUGGUf}UUGU%FGAApUUGUg}GGTGoGDAGf",
"KKVKp}FKJK.AKHKuKVKKa}AKHV.VKKVuKKJKp}JJKK.VKJAuJKVKp}VKJK.AKKVy",
"))S{[)))s)))[w`[))F{[)))s)))[w`[)/h{[))/j[)/'w]'))M{))))b]])]q{)",
"KV4^CKKKbFKKU3RJKA4^VJJJbFKKU3RJJG7^JUKJjVKKA3EJJU1^JJVUbVJUU3EG",
"::*q-*3-3-&::&3:::*q::3:3-&::&3:::&q::-39::::&3*::*q::,:3:*::&<*",
"/UGUUbRUFR1WUUAK/GUUUjUGFR1WUUAK/UUUGbFUUU1WTDGJ/UUUUsUGGG1WRGJU",
"!VJJKbFJgJ2RJJAm!JJJJbVJgJ2RJJAm^VAKJbVJJJ2RKHAH^KJJJsVJJV,RJJJg",
"+%X%%#+.@%%.#.+o++X%#%%X@%%.#.+o+%X%#%oo###@@.oo+%o%%##%@%@@@ o@",
"JA5!VJVKbVVJV2EJKA5^VKVHbVVJV2EJAK4^KJKKbVKVA2EHVJ7!JKKHbVKKA2EA",
"NN5~HHHHdgHmm2UgNN5~HHHHdgHmm2UgNN5~HHHmdgHHH3GgHH5~gHVHdfHNN2Tg",
"xxxlk8MlSS0VSzkzxxxll8MlSS0VSzkzFzxxl0MxxS0FzzSxSlxxk0Mxzx0Fzzkk",
"^JAKJbFJJS3RKABH^JAKKbFJJS3RKABH^JJKKjJJKS3EKgKK^JFJJbVKJJ2EJJJm",
"Qtuuybyyuy2mwryeQtuiujtuuu4gwryeQyyuybqpyy4hyft0Qyyyybyyyy3hqpyq",
"))M{[)))b[`){q''))M{])_)b[[/{q''))l{)[]/b[`)[q[[))M{))/'b[/][w[[",
"KK7^JVKKbVJJS,WKKK7^JVKKbCJJS,WKJK5^JJJUjVJKK<WAJK7^VJKHbNJVG2EK",
"--*q::::3:::,&3*--*q::-:3:::,&3*::&q:::33,:::&3&::*q:::33:::3&3*",
"TGUGg}UGGU%GGAGpTGUUg}UGGU%GGAGpGUUUg}UUUToGTDFfUUUUg}GUUGoGDDTa",
"KKJKp|JJKKXhJJAuKKJAp|JJJKXhJJAuJKVJa|VJKg.VKAKyKKVKa|VJJU#AKAKu",
"))M{)]))b][)[w]')/h{[))/d[))'w[]))M{))))s)))[w`[))l{)))/b]]``q['",
"JU4^JVJKbVJKV,EJJG7^JUKKbVKKA2EHKV7^KCJUbFKKU3RJKA4/JKGKbVJUU3EK",
"::*q::<:9::::&3*::&q::-39::::&3*::*q:*333-&::&3:::*q::3:3:*>:&3:",
"/UUUGbGGGG1WDUGJ/UUUGbFUUU1WTTGJ/UGGUdGKFR1WUUAK/UTTKsGGGG1WDAUU",
"^AAKJbVKJV2RJJVm^VAKKbAJJJ2RKKVm!JJJJbJKgJ2RJJAH^KJJKdAKJV,EKKVH",
"+++%#%oX@X#@@Xoo+%X%#%o+###@@.oo++X%#%%X@%%.#.++O@.%X%@#@%#@##o@",
"VK7^KAKKbNJVK<RKAK4^KHKKbVVVV2RVAA5^VKJJbVVJV2RJAK5~JKKJbVKKV,EK",
"Ng5~HHHHdgHmH3UgNN5~HHHHdgHHH3UhNN5~HHHgdgHmm2UgHN5~gHKmdfHHH2Gg",
"Fzxxx8MvxS0VxlkkFzxxl0MxxS0VSzSxxxxll8vxxS0JzzzzSlSlx8vvzx0Fxxlz",
"^JJKJbCCVJ3EKKKH^JJKKjJJKS3EKNKK^JAKPjJJJv3RAABm^FKKJbJKJJ2EmJJm",
"Qyyutbtyyu4hqattQyyuybqpyy4hygy0Qtuuujtiuy4gwyyyQuyytbuyyy3hqfty",
"/)l{)[)/s[[)[w[[))l{)[]/j][)[0`[))M{[)))b['){q'[))M{))))b[/[{q[)",
"KA7~JJJJbVKUV,RJJK5^JJJUjVVKG2EJKK7^JFKKbVJJl2WKKK7^JJJKbVAHG3RK",
"::*q:::33::*:&3:::&q:::39,:::&3*--*q::--3:::,&3*::*q::::3::::&3*",
"UUUJh|UUUG+UGUUfGUUUg}UUADoGUUGpTGUUf}UUGU%FGAApUUGUg}GGTGoGDAGf",
"JKKVp|JJKV.VJJKtJKVJa|VJNA.KHKAuKKJKp}JJKK.VKJAuJKVKp}VKJK.AKKVy",
"))z{))))s_]``q{)))M{)'))b]))'w'')/h{[))/j[)/'w]'))M{))))b]])]q{)",
"JK3^JJUKbJPUU3EJKA7^VKUKbVJCK2EKJG7^JUKJjVKKA3EJJU1^JJVUbVJUU3EG",
":,*q::3:3:*::&3:::*q::::9:*-:&3*::&q::-39::::&3*::*q::,:3:*::&<*",
"/KTEUsUGGG1WUVUU/UUUUbUGUR1WDTGK/UUUGbFUUU1WTDGJ/UUUUsUGGG1WRGJU",
"^VAKKdVKJV,RKKVH!VAKJbJKJC2EHKVg^VAKJbVJJJ2RKHAH^KJJJsVJJV,RJJJg",
"++#%@%+#@%#@#@oooo.%%X%###@#@@o%+%X%#%oo###@@.oo+%o%%##%@%@@@ o@",
"AA7!JKKKbVKJV<RJKK5^VJKKnVJVV2EKAK4^KJKKbVKVA2EHVJ7!JKKHbVKKA2EA",
"NN5~mHHmdfHHH2UgHH7~gVhmbgHHg2UgNN5~HHHmdgHHH3GgHH5~gHVHdfHNN2Tg",
"SlSlx8vvzx0Fxxlzxxxxl8xvzF0SSzSSFzxxl0MxxS0FzzSxSlxxk0Mxzx0Fzzkk",
"^FKKJbJKJJ2EmJJm^JJJJbJKJA<EJJKK^JJKKjJJKS3EKgKK^JFJJbVKJJ2EJJJm",
"Quyytbuyyy3hqftyQayttbttyy3hqfy0Qyyuybqpyy4hyft0Qyyyybyyyy3hqpyq",
"))M{))))b[/[{q[)))h{))))j[[){q]'))l{)[]/b[`)[q[[))M{))/'b[/][w[[",
"KK7^JJJKbVAHG3RKJK7^JJJJbVJJK,EKJK5^JJJUjVJKK<WAJK7^VJKHbNJVG2EK",
"::*q::::3::::&3*:::q::,:3-*::&3*::&q:::33,:::&3&::*q:::33:::3&3*",
"UUGUg}GGTGoGDAGfGUGKg}GGFG%FGDFaGUUUg}UUUToGTDFfUUUUg}GUUGoGDDTa",
"JKVKp}VKJK.AKKVyKKJCa}KJVV@FJJGtJKVJa|VJKg.VKAKyKKVKa|VJJU#AKAKu"
};
