/* XPM */
static char *_3b1d2d6a5de40a0bfbf6b811bb8b480dMtozJNU1Cs5Pe72[] = {
/* columns rows colors chars-per-pixel */
"64 64 232 2 ",
"   c None",
".  c #292D27",
"X  c #2A2E28",
"o  c #2B2F28",
"O  c #2B2F29",
"+  c #2C3028",
"@  c #33372F",
"#  c #353934",
"$  c #353935",
"%  c #363A35",
"&  c #373B35",
"*  c #373B36",
"=  c #373B37",
"-  c #3E7021",
";  c #3F7121",
":  c #3E7221",
">  c #3F7221",
",  c #3F7321",
"<  c #3F7122",
"1  c #3F7422",
"2  c #407221",
"3  c #407122",
"4  c #407222",
"5  c #407322",
"6  c #407223",
"7  c #407422",
"8  c #427425",
"9  c #437724",
"0  c #447827",
"q  c #467A28",
"w  c #477A28",
"e  c #467A29",
"r  c #477A29",
"t  c #487C29",
"y  c #497C2A",
"u  c #497D2B",
"i  c #4B7C2A",
"p  c #4A7D2A",
"a  c #4A7D2B",
"s  c #4C5446",
"d  c #4D5548",
"f  c #4E5449",
"g  c #4F5449",
"h  c #4E5648",
"j  c #4E5649",
"k  c #4E5749",
"l  c #4F574A",
"z  c #4F584A",
"x  c #50554A",
"c  c #50594B",
"v  c #515A4C",
"b  c #525B4D",
"n  c #535A4E",
"m  c #575E52",
"M  c #595F53",
"N  c #586052",
"B  c #596153",
"V  c #5A6054",
"C  c #5B6055",
"Z  c #639744",
"A  c #659944",
"S  c #649845",
"D  c #659845",
"F  c #659945",
"G  c #669945",
"H  c #659A45",
"J  c #659B45",
"K  c #669A45",
"L  c #669B45",
"P  c #679B45",
"I  c #659846",
"U  c #659946",
"Y  c #669846",
"T  c #679946",
"R  c #659A46",
"E  c #659B46",
"W  c #669A46",
"Q  c #669B46",
"!  c #679B46",
"~  c #669A47",
"^  c #679A47",
"/  c #669B47",
"(  c #679B47",
")  c #669C44",
"_  c #669D44",
"`  c #669C45",
"'  c #679C45",
"]  c #669D45",
"[  c #679D45",
"{  c #669C46",
"}  c #679C46",
"|  c #669D46",
" . c #679D46",
".. c #669C47",
"X. c #679C47",
"o. c #669D47",
"O. c #699E47",
"+. c #689B48",
"@. c #699B48",
"#. c #699B49",
"$. c #689C48",
"%. c #699D48",
"&. c #689C49",
"*. c #699C49",
"=. c #699D49",
"-. c #6A9C48",
";. c #699E49",
":. c #6A9E49",
">. c #6B9E49",
",. c #699D4A",
"<. c #6A9C4A",
"1. c #6A9D4A",
"2. c #6A9D4B",
"3. c #6B9E4B",
"4. c #6C9E4B",
"5. c #6B9E4C",
"6. c #6B9F4C",
"7. c #6C9E4C",
"8. c #6D9E4C",
"9. c #6C9F4C",
"0. c #6D9F4C",
"q. c #6C9F4D",
"w. c #6D9F4D",
"e. c #6E9F4D",
"r. c #6DA04D",
"t. c #6EA04D",
"y. c #6EA04E",
"u. c #6FA04E",
"i. c #6EA14E",
"p. c #6FA14F",
"a. c #6FA24F",
"s. c #70A14F",
"d. c #70A24F",
"f. c #70A150",
"g. c #70A250",
"h. c #71A350",
"j. c #71A351",
"k. c #77A759",
"l. c #7BAE5A",
"z. c #7CAE5A",
"x. c #7BAB5E",
"c. c #7CB05B",
"v. c #7EB25D",
"b. c #83B262",
"n. c #89B66C",
"m. c #89B76D",
"M. c #90BB75",
"N. c #90BC74",
"B. c #90958C",
"V. c #92968E",
"C. c #969A92",
"Z. c #9EC385",
"A. c #9FC685",
"S. c #9FC686",
"D. c #A1C887",
"F. c #A2C988",
"G. c #A3C889",
"H. c #A3CA89",
"J. c #A4CA8A",
"K. c #A3CC8A",
"L. c #A5CC8A",
"P. c #A4CD8A",
"I. c #A5CC8B",
"U. c #A6CC8C",
"Y. c #A6CD8C",
"T. c #A7CE8C",
"R. c #A7CF8C",
"E. c #A7CD8E",
"W. c #A8CC8C",
"Q. c #A8CE8F",
"!. c #A8CF90",
"~. c #A9CF91",
"^. c #AAD192",
"/. c #ABD293",
"(. c #B8E39D",
"). c #B8E49D",
"_. c #C5EFA9",
"`. c #C7F2AA",
"'. c #C7F4A9",
"]. c #C8F5AA",
"[. c #C9F3AD",
"{. c #C8F4AC",
"}. c #C8F5AD",
"|. c #C8F6AC",
" X c #C9F7AC",
".X c #CCF9AE",
"XX c #CCF9AF",
"oX c #CCFAAF",
"OX c #CCF7B0",
"+X c #CCF6B1",
"@X c #CDF9B0",
"#X c #CDF8B1",
"$X c #CCFAB0",
"%X c #CDFAB0",
"&X c #CDFBB0",
"*X c #CDFAB1",
"=X c #CDFBB1",
"-X c #CEFBB1",
";X c #CFF9B3",
":X c #CDFAB2",
">X c #CCFBB2",
",X c #CDFCB1",
"<X c #CEFCB1",
"1X c #CDFDB2",
"2X c #CEFCB2",
"3X c #CFFDB2",
"4X c #CFFCB3",
"5X c #CEFDB3",
"6X c #CFFDB3",
"7X c #CFFBB4",
"8X c #CFFBB5",
"9X c #CFFDB5",
"0X c #D0FCB3",
"qX c #D1FCB3",
"wX c #D0FBB4",
"eX c #D0FAB5",
"rX c #D1FBB6",
"tX c #D1FDB4",
"yX c #D0FCB5",
"uX c #D1FCB5",
"iX c #D2FCB5",
"pX c #D1FCB6",
"aX c #D1FDB6",
"sX c #D2FCB6",
"dX c #D2FDB6",
"fX c #D2FCB7",
"gX c #D3FCB7",
"hX c #D2FDB7",
"jX c #D3FDB7",
"kX c #D3FDB8",
"lX c #D3FDB9",
"zX c #D4FEB9",
/* pixels */
"                        oXjXjX>X0X5XO.O._ _ _ $._ $._ g.( ( _ o._ $.r._ _ o._ o.( Z ( _ o._ $.7 7 7 7 7 7                       ",
"                        jXrX5X5X5X5X_ _ _ O.$.o.$.$.w.y.O.o._ _ $._ $._ _ _ _ ( ( ( ( _ $.o._ 7 7 7 7 7 7                       ",
"                        0X5X5X0X5X5Xr.$.o.o.O._ ( 6.$._ O._ o._ _ $._ $._ _ g.w.( _ $._ _ $._ 7 7 7 7 7 5                       ",
"                        5X5X0X5X5X5X_ _ O._ _ ( 6.Z _ _ o._ O.O.$._ $._ o.( ( f._ $._ $.$._ $.7 7 7 7 a t                       ",
"                        0X5X0X5X0X5XO.$.$._ $.$.f.( 5X5Xr._ _ o._ ( _ ) ( g.y.5X5XO._ _ $._ _ 7 7 7 1 t t                       ",
"                        5X0X5X0X5X0X_ _ _ _ O.( ( ( jX5X$._ O._ _ O._ ( w.y.( 5X0XO._ $._ _ O.7 7 7 t t 5                       ",
"                            5X0X0X5X0X5X9 1 7 7 1 7 0X0X9 7 7 7 8 1 5 8 t 7 1 5X>X7 7 5 9 1 7 7 7 7 7                           ",
"                            5X5X5X0X5X9X5 1 7 7 7 7 0X0X9 1 7 7 5 t 5 t 7 7 7 0X9X7 7 5 5 1 7 7 7 7 7                           ",
"                            5X0X0X5X5X0X7 7 7 7 7 7 0X5X9 7 7 7 7 1 1 5 1 5 5 5X0X7 7 7 5 7 7 7 7 7 7                           ",
"                            5X5X5X0XjX>X7 7 7 5 7 7 jX0X9 7 7 1 7 7 5 5 1 9 7 9X5X5 7 7 5 5 7 7 7 7 7                           ",
"                            5X0X>XjX7X5XO.( _ _ _ O.0X5X$.O.O.( _ $._ O.$._ _ 5X9XO.O._ ( 5 1 7 7 7 7                           ",
"                            5XoXzXjXoX0X_ O._ O._ _ 9XjX$._ o._ $._ _ ( _ _ _ jX5X_ _ ( s.0 1 7 7 7 7                           ",
"                            5X'.jXoX5X5X_ $._ $.O.O.$.4._ _ _ O._ $.o.o.O._ O.$.$.O.( $.g.5 7 7 7 7 7                           ",
"                            .XjX5X0X5X0X$._ $._ _ o._ _ f.f.o.o.$._ _ _ O.o._ $._ O.$.w.( 7 7 7 7 7 7                           ",
"                    V.V.C.C.>X>X0X5X0X5X_ $.( _ O._ +.y.f._ O.o._ $.r._ _ _ o._ ( s.( _ _ 1 1 5 7 7 7 V.V.V.V.                  ",
"                    z z B M oX0X5X0X5X9X$._ O.o._ w.w.g.O.o._ o.$._ _ _ o.O.O.w.g.s.( _ _ 9 5 5 7 7 1 v v f B                   ",
"                    f M M f 5X5X5X0X5X0Xr._ _ _ ( y.y._ o.$._ _ _ $._ $._ _ ( g.g._ _ $._ 7 7 7 7 7 1 x M M n                   ",
"                    * * . . 5X5X0X5X0X5X_ _ o._ ( ( _ _ $._ _ _ $._ $._ o.( g.+._ _ $._ O.7 7 7 7 7 7 . O = X                   ",
"                    * + + + 5X0X5X0X5X0X$._ o.6.( _ $._ _ $._ _ _ $._ $.O.( +.( o.$._ $._ 8 7 7 7 7 5 * @ + +                   ",
"                                0X5X0X5X_ g.g.w._ $._ $.$._ $.r._ r.$._ ( ( _ _ $._ $._ _ 1 1 1 7 5 t                           ",
"                                5X0X5X0X( g.g.O.$._ $._ o._ _ _ _ _ ( _ _ ( _ _ _ $._ $.$.7 7 1 5 w t                           ",
"                                0X5X0X5Xw.$.( _ _ $._ $.T.Q.Y.T.).5X5X5X5X0XjX_ $._ _ r._ 7 7 w 5 t 5                           ",
"                                5X0X5X5XO.$._ $._ _ _ O.K.Y.Y.Q.).0X5X5X5X5XjX_ _ o._ _ $.7 5 5 5 7 7                           ",
"                                0X5X5XjX_ _ $._ O._ Q.R.Y.Y.Q.Y.M._ l.5X5X5X5X5XjX_ o._ _ 7 7 7 5 5 7                           ",
"                                5X5X0X5XO._ o.o.O.O.W.Y.Y.Y.Y./.N._ l.9X5X0X5X0X5X_ O._ $.7 7 7 7 7 7                           ",
"                                5X0X5X0Xo.o.O._ _ o.F.F.D.S.x.y.( O.$._ $.0X0X5X9X_ ( _ _ 7 7 7 7 7 7                           ",
"                                oX5X0X5X_ _ r.$.$._ G.F.S.Z.k._ _ $._ $._ 5X5X0XjX_ _ $.$.1 1 7 7 7 7                           ",
"                                oX0X5X0X_ _ _ _ _ _ ( O.( $._ $._ o.$._ _ _ _ r._ ( g.w._ 9 5 5 7 7 7                           ",
"                                0X0X5X0Xr._ _ $.$._ ( ( Z ( $._ O.o.o._ O.O._ o.( ( y._ O.7 7 7 7 7 7                           ",
"                                0X5X0X5X_ _ $._ |.|.`._.$._ _ _ _ _ O.O._ o._ J.^.!.K._ _ 7 7 7 7 7 7                           ",
"                                5X0X5X0X_ _ $.$.|.+X[.'.$.O._ O.o.O._ o._ $._ /.Q.J.Y._ _ 8 7 7 7 7 7                           ",
"                                0X5X0X5X_ _ _ o.jXjXoX0XjX5Xv._ o._ O.$.$.>XrXF.W.Y.Y.O._ 1 7 7 7 7 7                           ",
"                                5X0X5X0X_ $._ $.rXoX0X5X5XjXv._ O.( _ o.$.rX[.J.Y.Y.Y.$.r.1 7 7 7 7 7                           ",
"                                0X5X0X5X$._ $._ O.O.R.T.R.Y.Q.R.m._ l.jXkX>X>XY.R._ $._ _ 1 7 7 7 7 7                           ",
"                                5X0X5X5Xr._ _ $._ O.Y.Q.T.T.R.Y.m.$.z.rXjXoX0XR.R.$.$._ _ 7 7 7 7 7 7                           ",
"                                0X5X5X9X_ _ $._ _ ( _ _ K.T.Y.Y.m._ b.kXoX0X5XO._ $._ o._ 1 7 7 7 7 7                           ",
"                                5X5XoX5X_ _ O._ _ $._ $.K.Y.Y.R.m._ l.,X0X5XjX_ $._ $._ O.5 7 7 7 7 7                           ",
"                                0X5XrX0X5X0X( _ $._ $._ $._ _ $._ _ _ _ O._ _ _ _ $._ 9 1 5 t 7 7                               ",
"                                oXjXjXoX5X5X_ _ _ _ _ $._ $._ $.$._ $.r.$._ $._ $._ O.5 5 t t 5 7                               ",
"                                jXjXoX0X9X9Xo._ _ r.$._ $._ $._ _ $._ $._ $._ $._ $._ 5 t 9 1 7 7                               ",
"                                |.oX0X5X0X5X_ O.( _ _ $._ ( ( _ $.r._ _ ( _ _ $._ $.o.1 - 1 5 7 7                               ",
"                                >X0X5X0X5X0X_ _ O._ $._ w.( $._ _ $._ _ O.o.$._ $._ Z 1 1 7 5 5 7                               ",
"                                0X5X0X5X5X5X_ o._ _ ( +.w.( _ $._ $.o._ O._ o._ ( ( ( 5 7 7 7 7 7                               ",
"                                5X0X5X0X0X9X_ O.( ( ( w.( _ $._ $._ $.o.o._ O._ Z Z ( 5 7 7 7 7 7                               ",
"                                5X0X5X0X5X0X_ _ _ 6.( ( r.$._ $.r._ O._ o.O.( y.Z ( _ 5 7 7 7 7 7                               ",
"                                0X5X0X5X0X5X_ $.s.y._ _ _ _ $.o._ _ o._ _ ( ( 6.( _ ( 1 7 7 7 7 7                               ",
"                                5X0X5X0X5X0X( g.f.( O.o._ _ o._ _ o.O.O._ _ g.( _ _ $.1 7 7 7 7 7                               ",
"                                0X5X0X5X0X>Xf.f.O.o._ o._ _ _ _ _ o._ o.$._ $._ O._ _ 9 7 7 7 7 7                               ",
"                                5X0X5X0X5XoX( ( ( _ o.$.$._ $._ _ $._ $._ _ $._ $._ _ 7 7 7 7 7 1                               ",
"                                0X5X0X5X0X>X( _ _ _ $._ _ $.r._ $._ $._ _ _ r.$._ _ O.5 7 7 7 7 t                               ",
"                                5X0X5X0X5X0X_ O._ $._ $.$._ _ O._ o.o.$._ o.$._ $._ O.1 7 7 7 7 1                               ",
"                                0X5X0X5X0X5X_ _ $._ $._ _ $._ $.( g._ _ O.o.o._ _ $._ 7 7 7 7 7 7                               ",
"                                5X0X5X0X5X9X_ O._ $._ o.O._ _ $.f.( ( _ r._ _ o.$._ $.7 5 5 5 7 7                               ",
"                                jX5X0X5X5X9X_ o._ r.O.o._ ( y.f.( _ _ _ $._ _ _ _ $._ 7 5 1 7 7 7                               ",
"                                zXoX0X5X0X5X_ $._ _ o._ $.$.w.( $._ $._ _ $._ $._ $.$.5 1 1 7 7 7                               ",
"                                oX0X5X0X5X0X_ _ _ _ o.O.( w.( _ _ $._ $.$._ $._ $._ w.1 1 7 7 7 7                               ",
"                        z z z f 5X0X5X0X5X0Xo.$._ _ ( g.f.( _ _ $._ _ $._ _ _ _ ( $.g.5 7 7 7 7 1 v z v z                       ",
"                        z f z v 0X5X0X5X0X5X_ _ O.( ( +.( o._ _ _ $.$.o.$.r._ _ ( g.+.7 7 7 7 7 7 z v z v                       ",
"                    z z z v . . 5X0X5X0X5X0X_ $._ ( Z +._ _ r._ $._ _ _ _ O.o.( $.( _ 1 7 7 7 7 7 . . v z b z                   ",
"                    f s z z . . 0X5X0X5X0X5X_ _ ( f.( o.o._ $._ r._ _ o._ $.$.6.( _ $.1 7 7 7 7 7 . . z f z f                   ",
"                    z f . . . . 5X0X5X0X5X5X( O._ ( ( _ _ $._ $.o._ _ O.O.w.f.( _ o.O.1 7 7 7 7 7 . . . * f f                   ",
"                    f v . . . . 0X5X0X5X0X5X_ o._ o._ O.$._ $._ O.O.o.o.f.f.( _ O._ _ 9 7 7 7 7 7 . . . . v z                   ",
"                        . . . .                                                                   . . . .                       ",
"                        . . . .                                                                   . . . X                       "
};
