/* XPM */
static char *c9ff0ca554f84c01a356d4b7e53d7056Doe9Mv3Rib10c7pg[] = {
/* columns rows colors chars-per-pixel */
"64 64 142 2 ",
"   c None",
".  c #4C4F4C",
"X  c gray31",
"o  c #4F524F",
"O  c #51524A",
"+  c #50514F",
"@  c #53514E",
"#  c #50524E",
"$  c #50534E",
"%  c #51524F",
"&  c #50534F",
"*  c #51534F",
"=  c #52524E",
"-  c #4F5251",
";  c #515150",
":  c #515051",
">  c #515151",
",  c #515250",
"<  c #505350",
"1  c #515350",
"2  c #505251",
"3  c #515251",
"4  c #515351",
"5  c #525250",
"6  c #525251",
"7  c #535351",
"8  c #525153",
"9  c #505252",
"0  c gray32",
"q  c #535252",
"w  c #535352",
"e  c #525154",
"r  c #515156",
"t  c #515157",
"y  c #565657",
"u  c #515158",
"i  c #565558",
"p  c #575A5A",
"a  c #585858",
"s  c #5B5E5B",
"d  c #5E605D",
"f  c #638545",
"g  c #638746",
"h  c #658745",
"j  c #668744",
"k  c #658646",
"l  c #658647",
"z  c #668746",
"x  c #668747",
"c  c #678846",
"v  c #668847",
"b  c #648648",
"n  c #648748",
"m  c #668648",
"M  c #678748",
"N  c #668749",
"B  c #65874A",
"V  c #68874C",
"C  c #668848",
"Z  c #678848",
"A  c #678849",
"S  c #678949",
"D  c #698949",
"F  c #6A8A4A",
"G  c #6B8C48",
"H  c #6A894C",
"J  c #71924B",
"K  c #72944A",
"L  c #72954A",
"P  c #73954A",
"I  c #73944B",
"U  c #72954B",
"Y  c #73954B",
"T  c #73964A",
"R  c #73964B",
"E  c #73974B",
"W  c #74974B",
"Q  c #72934D",
"!  c #73944C",
"~  c #72954C",
"^  c #73954C",
"/  c #73944D",
"(  c #73964C",
")  c #73954F",
"_  c #74974C",
"`  c #74974D",
"'  c #759750",
"]  c #769750",
"[  c #7A9955",
"{  c #7DA34F",
"}  c #7EA74E",
"|  c #7EA651",
" . c #7C9964",
".. c #7F9B67",
"X. c #81A54B",
"o. c #81A64A",
"O. c #81A64B",
"+. c #81A54C",
"@. c #80A44E",
"#. c #81A54E",
"$. c #80A44F",
"%. c #81A44F",
"&. c #80A54F",
"*. c #81A54F",
"=. c #82A54E",
"-. c #80A64E",
";. c #80A64F",
":. c #80A450",
">. c #81A450",
",. c #80A550",
"<. c #81A550",
"1. c #80A451",
"2. c #82A550",
"3. c #81A650",
"4. c #80A651",
"5. c #82A650",
"6. c #83A651",
"7. c #8AAB5C",
"8. c #8CB654",
"9. c #8CB655",
"0. c #8DB755",
"q. c #8EB754",
"w. c #8EB755",
"e. c #8FB755",
"r. c #8CB657",
"t. c #8EB656",
"y. c #8DB853",
"u. c #8EB854",
"i. c #8EB954",
"p. c #8EB855",
"a. c #8EB856",
"s. c #8FB956",
"d. c #8EB459",
"f. c #8DB758",
"g. c #92BA5A",
"h. c #89A766",
"j. c #8CAC60",
"k. c #88A56A",
"l. c #8CA86A",
"z. c #94B866",
"x. c #9EC171",
"c. c #868683",
/* pixels */
"X 0 0 - y.y.* 0 0 U U Q f u.0 0 X 0 0 0 y.y.* 0 0 ~ I I g u.0 0 X 0 0 - q.y.* 0 0 _ J ! x 0.0 0 X 0 0 - y.y.* 0 0 U U Q f u.0 0 ",
"* d.#.0.0 { S x q.o 0 M ' S d._ M d.{ u.0 | M v q.o 0 x ' S 0.M ' d.#.0.- %.M x q.- * x ' v r.S ' d.#.0.0 { S x q.o 0 M ' S r.0 ",
"X <.f M <.0 w s.U S S _ U F f.E F #.f F #.0 0 s.I S S ~ W F d.~ U <.f S <.0 0 u._ M F ~ U F f.~ U <.f M <.0 w s.U S S _ U F u.e ",
"o x U ~ x x S _ I #.<._ W u.p U 0.x U U v b x ~ I <.6.~ ~ u.p U U v U ~ v b M _ ~ <.<._ I u.a ` U x U ~ v x S _ I #.<._ U u.p e ",
"0 0 #.I J _ _ I #.i 0 #.~ U <.~ ~ e #.I U _ _ I o.i 0 %.U I #.#._ 0 #.I J _ _ U #.y 0 #._ ~ #.#.I 0 #.I J I _ I #.i 0 { ~ U <.g.",
"| u.0 ~ _ _ ~ S y u.0.& W H z.I H u.0 U ~ _ _ S p u.0.0 U H z.4 ~ u.0 ~ ~ _ U S y 0.0.0 U V z.4 _ u.0 ~ _ _ I S y e.0.* W H z.0 ",
"c.7.7.<.<.* | #.M <.* j U x.} U x.7.7.| <.& | #.M <.* x U x.{ v U j.7.<.<.& | <.M >.* x U x.{ j ~ 7.7.#.3.* | <.M #.* j U x.} 0 ",
"s  .k.<.0 u.o W #.M F ~ h.v <.h.x ..k.#.0 u.& I #.x c _ h.v #._ h...k.#.4 u.& W #.c c _ h.v <._ h...k.| 4 u.& W #.M F ~ h.v <.0 ",
"d ..#.U S F M S ~ _ I l.v #.4 S <...<.U S F x M ~ _ U l.S #.0 l.x ..#.U M F M S U _ ~ l.M <.0 l.v ..#.U S F M S _ _ I l.v 3.4 0 ",
"0 #.#.U _ U #.o.#._ [ U o.0 0.o.- o.<.U _ U %.o.o._ [ U o.0 0.U o.o.#.U ' U #.o.o._ [ ~ o.- 0.U o.#.#.U _ U #.o.#._ [ U o.4 0.u.",
"0 0 y.G Q <.0 0 0 U U u.0 0.~ 0 u.0 u.G Q #.0 0 0 U U u.0 0.I u.0 0 0.G Q #.0 0 0 U I u.0 0.~ u.0 0 y.G Q <.0 0 0 J I u.0 0._ >.",
"0.#.F U U 0 <.<.q.- v c <.x 0 <.x #.F U _ 0 | %.8.0 S M #.x 0 M <.#.F U U * | #.8.- v F #.x 0 M <.#.F U U 0 <.<.q.- v c >.x 0 0 ",
"@ F J I <.~ O v c u.U U 0.>.M 0.%.H U U <.U O v v u.I I 0.<.b ~ 0.H ~ U <.U O v x 0.U U u.<.b Q 0.H ~ I <.~ O v c u.U U 0.>.M 0 ",
"a 0 u.#.u.u.0.I _ I I <.%.%.M #.%.- 0.#.u.u.0.E U I W <.>.#.M | %.0 u.#.u.u.r.U I I U <.%.<.M >.#.: u.#.u.u.0.I _ I I <.%.%.M 0 ",
"o S #.v v { #.u.<.<.v M M M | M S x #.x S { { u.<.#.S v M M | M x x #.x S #.#.u.O.<.S M M c | M S v <.v v { #.u.<.<.x M M M | - ",
"& d.#.u.0 { S v y.- - M ' M r.' M d.#.0.0 #.M x u.o 0 x ' M r.M ' d.#.0.0 { S x u.0 & x ' S 0.b _ d.#.u.0 { S v y.- - M ' M r.0 ",
"o { x x #.0 0 u.I S F _ U F r.U F #.x x #.0 0 u.I F S _ U G f.~ U #.f F <.- w s._ S S _ U H d._ _ <.x x | 0 0 s.W S F ' U F 0.0 ",
"* x U U M b M ` _ <.<.U _ 0.s I 0.S U U S f M _ I <.<.I ~ u.p U U v U U v M M _ _ <.<._ U u.p U ~ x U U v M x I ~ #.<._ U 0.p e ",
"0 e #.U U _ ~ U o.i : %._ I <._ U e #.I Q _ ~ _ o.i 0 { _ ~ <.#.U 0 #.I J ~ _ U #.y e { _ W #.%._ 0 #.U J _ W I #.y e #._ _ <.g.",
"#.u.0 U _ _ U S y 0.0.0 U V z.I F 0.0 U U _ ~ S y e.0.0 ~ H z.0 _ u.0 I _ _ _ S y 0.u.4 U H z.* _ u.0 J _ _ _ S y y.u.4 U V z.0 ",
"c.7.7.<.<.o | <.S <.* x U x.{ U x.7.7.<.<.* | <.S %.* x U x.{ x ~ 7.7.| | * | #.M >.* j U x.} v J j.7.<.<.o | #.M >.* v U x.{ 4 ",
"s ..k.{ 0 u.& W #.v c _ h.S #.h.S ..k.{ 4 u.& _ #.S c _ h.v #.I h...k.#.0 u.o I #.M M I h.v <.~ h...k.{ 0 u.& U #.c c ~ h.x <.w ",
"d ..<.U M F v F W W U l.v #.0 x #...<.U M F v F _ _ I l.v #.0 l.x ..<.U M F x F _ _ I l.x #.0 l.x ..#.U S F S M _ _ U l.v <.0 0 ",
"0 #.<.~ _ U #.o.#._ [ ~ o.4 0.o.- #.<.~ _ U #.o.O._ [ U o.4 0.U o.#.#.U ' U o.#.o._ [ U o.0 0.U o.o.#.U ' U o.#.#._ [ U o.0 0.u.",
"0 0 u.G ~ #.0 0 0 J U y.e 0.~ e u.0 u.G ~ #.0 0 0 J I y.0 0._ 0.0 0 u.G ~ #.* 0 0 U U u.0 0.U 0.e 4 u.G Q %.0 0 0 J E y.0 u.~ <.",
"y.#.F I U 0 | %.0.0 S c #.x 0 #.x #.F U U 0 | %.0.- S c %.x 0 M <.#.F W U 0 | <.q.0 v v <.x 0 M <.#.F I I * | #.q.* v F <.x 0 0 ",
"* F U U <.~ O v c 0.U I 0.>.M 0.>.F U U <.~ O v v u.I I 0.>.b U 0.H ~ I <.U O x v 0.U ~ 0.>.M ~ u.H ~ U #.~ O v x u.I I 0.>.f 0 ",
"a 0 u.#.u.u.0.W _ U _ #.>.| M #.%.0 u.#.u.u.0._ _ W I <.%.| M >.#.: 0.#.0.0.0.I W I I #.#.>.M | #.0 u.<.u.u.0.I U I I <.<.>.S 0 ",
"* x #.x x { { u.<.<.S x M S | M M v #.x v { { u.<.<.S M S x | x M M #.x v | #.0.#.<.S x M M | M M S #.x v #.{ y.<.<.S M M M { 0 ",
"* d.#.0.0 #.S v 0.* 0 M ' x f._ S d.#.0.0 <.S v u.o 4 M _ S r.M ' 0.#.r.0 #.x x q.- 0 x ' x r.b ' d.#.0.0 { S x u.o o S ' S r.0 ",
"X #.f S <.0 0 u.I S S _ U F f.U F #.f M #.0 0 u.I S S _ ~ F d._ U #.f S #.0 0 s._ S S _ U F u.' I <.f x | 0 w s.U S F ~ U F d.4 ",
"o x U ~ v b x ~ I #.<._ U u.a ` 0.x ~ ~ S f M ~ W <.<.I _ 0.p U U M U ~ M x S I _ <.<.U U u.p W I x U ~ v M M _ ~ #.6.I ~ u.p 0 ",
"0 0 #.I J _ _ U #.i 0 #._ U <._ _ 0 #.I J _ _ I #.y 0 %._ ~ #.#.~ 0 #.I J _ _ W #.y 0 #._ _ #.#.~ e #.I J _ _ U o.i 0 %.U I <.g.",
"<.u.0 I _ _ _ S y 0.0.0 U H z.I H u.0 I _ _ _ S y q.0.0 U V z.4 _ u.0 Q I W U S y 0.0.0 U V z.4 U u.0 I _ U _ S i u.0.0 U V z.w ",
"c.j.7.| <.o | #.M #.* j U x.} U x.j.7.| <.o | #.M %.* j U x.{ j ~ 7.7.#.<.* | <.M <.* v U x.{ v U j.7.#.<.* | <.S <.* x U x.{ w ",
"s ..k.#.0 u.& U #.M M _ h.v { h.x  .k.#.0 u.& U #.M S _ h.v <._ h...k.| 0 u.& W #.c c _ h.x #._ h. .k.<.0 u.* _ #.M c _ h.v <.4 ",
"s ..#.~ F F x M _ _ ~ l.S #.0 S <...<.U M F M S U _ _ l.M <.0 l.v ..#.U S F S S U _ I l.v <.0 l.v ..<.U S F x M _ _ U l.v #.4 0 ",
"0 o.#.U ' U #.o.o._ [ ~ o.- 0.o.- o.#.U ' U #.o.o._ [ ~ o.- 0.U o.#.#.U _ ~ o.#.o.U [ U o.- 0.U o.o.#.U ' U #.o.o._ [ U o.0 0.u.",
"0 0 u.G Q #.0 0 0 U I u.e u.~ e u.0 u.G Q #.0 0 0 J U u.0 0._ y.0 0 u.G Q #.0 0 0 U I u.0 0.~ u.e 0 u.G Q #.* 0 0 U ~ u.0 0._ >.",
"0.#.F U I + | #.8.- x F #.v 4 <.x #.F U U * | #.q.- x F #.x 0 S <.#.F I I : | #.8.0 S M <.x 0 M <.#.F U U 0 | <.8.0 M M >.x 0 0 ",
"@ H J I <.U O v v 0.I U 0.#.n u.>.H U U #.U O x v 0.I U 0.#.g ~ u.H U U <.~ O x x 0.I I u.<.b ~ u.H U U #.U O M x 0.U U u.<.b 0 ",
"a 0 0.#.u.0 | M v u.* * M ' v d.' M d.#.0.0 | M v u.* * M ' S d.M ' d.#.0.- | M x q.* * M _ S r.M _ d.#.0.0 | M x q.o 4 M ' S 0.",
"& o { f x | 0 0 s.W S F _ U F d.U F <.f M <.0 0 u._ M F ~ I F f._ I #.f S #.0 0 s.I x S ' U G d.' U <.f M <.- 0 u.W S F _ U F %.",
"  4 x U ~ x M x ~ U <.6.~ _ 0.a U u.S U ~ x x x ` ~ <.6._ ~ 0.a ~ U v ~ ~ x x S _ _ <.<.~ ~ u.p U ~ x U ~ v M M I W #.<.~ U 0.0 ",
"  0 0 #.I J _ _ I #.y e #.~ E <.~ ~ e #.U J _ _ U #.y e #.~ W #.#.~ 0 #.I J _ _ W #.y 0 %.~ ` #.#.U 0 #.U J I _ I %.a e #.U W 0 ",
"  <.0.0 I I _ _ v y y.u.0 U H z._ H u.0 J W _ _ M y y.u.4 U H z.4 _ 0.0 I I _ ~ v y q.0.0 U F z.0 U u.0 U ` _ _ v y 0.0.0 U H 0 ",
"  c.7.7.| <.* | 6.S %.* j U x.} U x.7.7.{ <.* | 6.M #.* v U x.{ v U 7.7.<.<.& | #.S <.* j U x.{ j U j.7.#.<.* | #.M <.* x U x.0 ",
"  s ..k.#.0 y.* I #.x S U h.v <.h.v ..k.#.0 u.o _ #.M c U h.S <.U h...k.#.4 u.& _ #.M F U h.v <.U h...k.#.0 0.* _ #.c v U h.v 0 ",
"  d ..#.U F F M M U _ U l.v <.0 v #...#.~ S F M M I W I k.c <.0 k.S ..<.~ M F M F _ I U l.S #.0 l.v ..#.~ M F v F U _ U l.v <.0 ",
"0 0 o.#.U ' U o.#.o._ [ U o.0 0.o.0 #.#.U ' J X.#.o._ [ ~ o.4 0.I o.o.<.U ' ~ o.o.O._ [ U o.4 d.U o.#.<._ _ ~ #.o.o._ [ U o.0 0 ",
"X 0 0 u.G ~ #.0 0 0 U U 0.0 u.~ e 0.0 0.G ~ #.* 0 0 U W u.0 u.~ y.w 0 u.c ~ #.0 0 0 U U y.0 u.~ u.0 0 u.G J %.* 0 0 J U 0.0 u.g.",
"o 0.| F I U * | #.r.o v F #.x 0 #.x #.F U E 0 | #.q.- S M <.x 0 F <.#.F U _ 0 | #.r.- M S <.f 0 F #.{ F U U 0 | <.r.* v S <.x 0 ",
"0 * F J U <.U O v c u.I U 0.>.M 0.<.H U U <.U O M v 0.I I u.>.b U 0.H U U <.U O x v 0.I ~ 0.<.M U 0.H U U #.~ * v c 0.I U 0.<.0 ",
"%.a 0 0.#.u.u.r.I U _ I #.%.<.b %.#.: 0.<.u.u.u.U U U U <.<.<.M #.>.0 u.#.u.u.u.U U W I <.#.%.M #.%.0 u.<.u.u.u.I I _ U #.>.%.0 ",
"c.* x #.v v #.#.u.<.<.M M x M | v S S #.v v #.{ u.#.<.S F x v { M M x #.v v #.#.u.<.#.F M M M { M x x #.v v #.O.u.3.<.M x F M 0 ",
"s  .k.#.0 u.o W #.F M ~ h.x | h.v  .k.#.0 u.& U #.F S U h.x <.~ h. .k.<.0 u.o _ #.v S U h.x <._ h...k.{ 0 u.o I #.F M U h.v <.0.",
"a k.#.U v F M M U _ I l.v #.0 v <...#.U S F M S ~ _ U l.S #.0 l.v ..#.~ S F M S U _ I l.v 3.0 l.v ..#.U M F S M U W I l.v #.4 <.",
"0 o.<.U ' U #.o.o._ [ U o.0 0.o.- o.<.U ' U o.#.o._ [ U o.0 0.U o.o.#.U ' U #.o.o.~ [ U o.4 0.U o.#.#.U _ U #.o.#._ [ ~ o.0 0.0 ",
"0 0 s.G Q #.0 0 0 U U u.0 0.~ 0 u.0 u.G Q #.* 0 0 U ~ u.0 0.I u.e 0 0.G Q %.* 0 0 U U y.0 u.~ y.0 0 u.G Q <.0 0 4 U U u.0 0._ 0 ",
"0.<.c U U 0 | <.0.- S v <.x 0 <.x #.F W U 0 <.<.8.0 M M #.x 0 M <.#.F U I : | <.8.0 v F <.x 0 S <.#.F U U 0 <.<.q.- v c >.x 0 0 ",
"* V I I <.~ O S c u.I I 0.>.M 0.%.H U I #.U O S v u.I I 0.<.M ~ 0.F U W #.~ O S c 0._ I 0.>.M U u.H U U <.~ O v c 0.I I 0.>.M 0 ",
"a : u.#.u.u.u.~ _ I I >.#.>.M #.%.0 0.{ u.u.r.~ U I W <.%.<.M | <.0 u.{ u.u.0.U I I I <.<.>.b >.<.: u.#.u.u.0.~ _ W I <.%.%.M 0 ",
"& v #.v v { #.u.<.<.c M S v | M M v #.x S { #.u.<.<.S v v c { x M v <.x v { #.u.<.<.M c M S | M v x <.v S { #.u.<.<.c M c x | - ",
"0 0 e 0 0 u e & u u * 0 * 0 u i 0 0 e 0 * u e 4 u e * 0 0 0 e a 0 0 e 0 * u e 0 t t 0 * 0 * e a 0 0 u * - u e 4 e u 0 * 0 0 u i "
};
