/* XPM */
static char *_15d042ba8134e2ab531f2124581f94533uiLTBFYaY0884A[] = {
/* columns rows colors chars-per-pixel */
"64 64 187 2 ",
"   c None",
".  c black",
"X  c #010000",
"o  c #000100",
"O  c #000001",
"+  c #010001",
"@  c #020000",
"#  c #020100",
"$  c #000200",
"%  c #010200",
"&  c #000201",
"*  c #020200",
"=  c #000002",
"-  c #000003",
";  c #010003",
":  c #020102",
">  c #030102",
",  c #000302",
"<  c #030202",
"1  c #040000",
"2  c #060000",
"3  c #070200",
"4  c #060002",
"5  c #050202",
"6  c #010400",
"7  c #010500",
"8  c #010401",
"9  c #010501",
"0  c #010600",
"q  c #000402",
"w  c #010004",
"e  c #000104",
"r  c #020004",
"t  c #000006",
"y  c #010006",
"u  c #000106",
"i  c #000007",
"p  c #030006",
"a  c #020007",
"s  c #020306",
"d  c #070207",
"f  c #010504",
"g  c #040406",
"h  c #0D0101",
"j  c #0A0007",
"k  c #010801",
"l  c #010A05",
"z  c #01000B",
"x  c #01000C",
"c  c #01000F",
"v  c #0E0E0F",
"b  c #091309",
"n  c #1D1716",
"m  c #231715",
"M  c #251819",
"N  c #271818",
"B  c #2A181A",
"V  c #1B172C",
"C  c #1D1534",
"Z  c #1C1636",
"A  c #1D1834",
"S  c #3E2B3F",
"D  c #3C3C3C",
"F  c #542735",
"G  c #5D2532",
"H  c #572831",
"J  c #582830",
"K  c #662233",
"L  c #692D3B",
"P  c #762B3D",
"I  c #2D2843",
"U  c #312A4C",
"Y  c #2E304F",
"T  c #2C324F",
"R  c #343049",
"E  c #342E53",
"W  c #362B55",
"Q  c #342B56",
"!  c #342B57",
"~  c #322E54",
"^  c #34275C",
"/  c #332B58",
"(  c #352A5B",
")  c #302E58",
"_  c #34295C",
"`  c #352A5C",
"'  c #342A5E",
"]  c #352A5E",
"[  c #352A5F",
"{  c #362A5E",
"}  c #312D5C",
"|  c #382958",
" . c #2D3152",
".. c #2C3452",
"X. c #2C3455",
"o. c #253B57",
"O. c #273A59",
"+. c #372763",
"@. c #763947",
"#. c #7E3748",
"$. c #6D5F57",
"%. c #69626D",
"&. c #A9854D",
"*. c #BB9353",
"=. c #9B816D",
"-. c #A28E77",
";. c #A98F77",
":. c #A88D7D",
">. c #AA8C7E",
",. c #B08F77",
"<. c #A2907B",
"1. c #A5907B",
"2. c #C1995B",
"3. c #E2B979",
"4. c #937F81",
"5. c #838383",
"6. c #95838D",
"7. c #AAB9AD",
"8. c #CDAC94",
"9. c #D8B597",
"0. c #D3B49E",
"q. c #DABC9C",
"w. c #DEBD9E",
"e. c #EABF98",
"r. c #CDABA5",
"t. c #E1B9A4",
"y. c #F2C682",
"u. c #C8C6B4",
"i. c #DECBB0",
"p. c #E8C8A6",
"a. c #EFCFA7",
"s. c #EDC7A8",
"d. c #EAC8AD",
"f. c #EFCEAF",
"g. c #F2CFA2",
"h. c #F6C9A7",
"j. c #F4CBA7",
"k. c #F5CBA7",
"l. c #F6CBA6",
"z. c #F1CCA4",
"x. c #F3CDA4",
"c. c #F3CEA4",
"v. c #F3CEA7",
"b. c #F5CDA5",
"n. c #F4CDA6",
"m. c #F6CFA7",
"M. c #F5CBA8",
"N. c #F5CAA9",
"B. c #F6CAA9",
"V. c #F4C9AB",
"C. c #F5CBAA",
"Z. c #F6CBAA",
"A. c #F0CDAA",
"S. c #F1CDAA",
"D. c #F2CDAA",
"F. c #F4CCA8",
"G. c #F4CCA9",
"H. c #F1CBAC",
"J. c #F5C9AD",
"K. c #F5CAAC",
"L. c #F4CBAD",
"P. c #F2CCAD",
"I. c #F3CCAD",
"U. c #EED0AC",
"Y. c #F3D5AC",
"T. c #E9CBB2",
"R. c #E9CAB7",
"E. c #EDCDB5",
"W. c #EFCDB4",
"Q. c #F2C5B2",
"!. c #F4C6B2",
"~. c #F2CBB0",
"^. c #F0CBB3",
"/. c #F3CAB3",
"(. c #F6CBB3",
"). c #F4CFBF",
"_. c #F3D5B1",
"`. c #F1D1B8",
"'. c #F6DBBF",
"]. c #ECDBCA",
"[. c #EDDBCB",
"{. c #F2D6C3",
"}. c #F0D7C5",
"|. c #F5D5C6",
" X c #F2DAC1",
".X c #F1DBC7",
"XX c #F4D9C5",
/* pixels */
"                                                                                                                                ",
"                                                                                                                                ",
"                                                                                                                                ",
"                                                              2.2.2.2.                                                          ",
"                                                          y.y.3.3.3.3.2.2.                                                      ",
"                                                          y.3.3.3.3.3.3.3.2.                                                    ",
"                                                        y.3.;.3.3.3.3.3.3.3.2.                                                  ",
"                                                      y.3.3.>.<.2.3.3.3.3.3.3.2.                                                ",
"                                                      y.3.9.0.<.=.2.3.3.3.3.3.3.                                                ",
"                                                      y.3.F.F.I.8.2.3.3.3.3.3.3.2.                                              ",
"                                                    y.y.3.Z.h.n.D.,.3.3.3.3.3.3.2.                                              ",
"                                                    y.3.3.Z.I.D.Z.n.2.2.3.3.3.3.3.2.                                            ",
"                                                    y.y.3.*.F.n.Z.z.q.2.3.3.3.3.3.3.2.                                          ",
"                                                    y.3.3.*.Z.~.g.V.&.&.3.3.3.3.*.*.2.                                          ",
"                                                    y.3.3.*.*.*.>.2.&.&.3.3.*.3.*.*.2.                                          ",
"                                                    y.3.*.*.*.S -.&.&.&.&.&.*.*.*.*.                                            ",
"                                                            r.@.K.w.t.P     3.2.2.                                              ",
"                                                          {.g.#.L.K.#.R.F.[.                                                    ",
"                                                          }.@.@.@.@.I.F.F.a.[.                                                  ",
"                                                          @.@.@.@.@.F.F.F.F.I.                                                  ",
"                                                          @.@.@.@.P F.F.    F.^.                                                ",
"                                                          @.@.P P L L         Y.).                                              ",
"                                                          L L L L L L           Y.~.                                            ",
"                                                          F.n.h.F.F.          F.T.                                              ",
"                                                          F.p.h.F.        u.n.~.                                                ",
"                                                          O.^ ^ j       7.(.^.                                                  ",
"                                                        ` O.Q ) k E. X X_.I.                                                    ",
"                                                        ` ` } ` $.p.s.d.i.                                                      ",
"                                                        ` ` ` Q t n m $                                                         ",
"                                                        ` ` ` Q $ $ t $                                                         ",
"                                                        ` ` ` ` A $ $ $ 8                                                       ",
"                                                D D     ` ` g I C t $ $ $                                                       ",
"                                              5.D v v   6.` $ z ` x $ $ $                                                       ",
"                                                  [.|.XX4.` $ $ C z $ $ $                                                       ",
"                                                  !.Z.Q.%.^ $ $ V c $ $ $                                                       ",
"                                                  D v     X.1 $ b ~ t $ $                                                       ",
"                                                5.D v v   E $ $ $  .t $ $                                                       ",
"                                              5.5.D v v   X.r $ $ ..j 8 $                                                       ",
"                                              5.5.D v v     $ $ $   a 1 $                                                       ",
"                                              5.D D v v     1 3 $   | $ $ $                                                     ",
"                                              5.D D D v v   $ U $     1 1 $                                                     ",
"                                            5.D D D D v v   $ ( $     R $ $                                                     ",
"                                            5.D D D v v v   $ $ $ $    .t $                                                     ",
"                                            5.D D D v v v   $ r $ $   $ $ t $                                                   ",
"                                          5.5.D D D D v v     $ 1 $     $ a $                                                   ",
"                                          5.5.D D D v v v     1 $ $     $ $ g $                                                 ",
"                                          5.5.D D D D v v     $ t $     1 t 1 $                                                 ",
"                                        5.5.D D D D D v v     t $ 1     $ t $ $ $                                               ",
"                                        5.5.D D D D v v v     $ $ $       $ r $ $                                               ",
"                                          D D D v v D v v     1 $ 1       1 $ $ $                                               ",
"                                          D v D D v v v     r $ r $       t $ $ t                                               ",
"                                                            $ $ $ 1       $ $ 8 $                                               ",
"                                                            1 $ $ $ 1     1 $ $ 1 $                                             ",
"                                                          $ $ t $ t $     $ $ t $ $ r                                           ",
"                                                            $ $ 1 $ $     $ $ 1 $                                               ",
"                                                              $ t           t r                                                 ",
"                                                            F 3 8           8 1 M                                               ",
"                                                        G K k 5               t B                                               ",
"                                                        B 8 8                 8 8 J                                             ",
"                                                                                8 J                                             ",
"                                                                                t h l                                           ",
"                                                                                                                                ",
"                                                                                                                                ",
"                                                                                                                                "
};
