/* XPM */
static char *_7b3f2649f654ec398e3facc8f5a9cc5NwYQBLosFJpZSo8T[] = {
/* columns rows colors chars-per-pixel */
"64 64 202 2 ",
"   c None",
".  c #01033D",
"X  c #070736",
"o  c #292D33",
"O  c #242938",
"+  c #2C3336",
"@  c #2E3539",
"#  c #30363A",
"$  c #33393D",
"%  c #313934",
"&  c #38403E",
"*  c #030345",
"=  c #080443",
"-  c #01014A",
";  c #080848",
":  c #020353",
">  c #02045A",
",  c #080C56",
"<  c #121243",
"1  c #252A44",
"2  c #353B41",
"3  c #3A3E41",
"4  c #303245",
"5  c #282753",
"6  c #303155",
"7  c #0A0165",
"8  c #0A016E",
"9  c #040867",
"0  c #060174",
"q  c #0D0473",
"w  c #05047A",
"e  c #0C017C",
"r  c #080C77",
"t  c #110473",
"y  c #130879",
"u  c #121574",
"i  c #261D7E",
"p  c #092178",
"a  c #393966",
"s  c #2F3071",
"d  c #403E63",
"f  c #3A4042",
"g  c #3F406B",
"h  c #464A4D",
"j  c #464A51",
"k  c #4A4F52",
"l  c #4E4A59",
"z  c #4C5154",
"x  c #55575C",
"c  c #55595C",
"v  c #56585B",
"b  c #5C5E62",
"n  c #5C5A7F",
"m  c #5E6163",
"M  c #616365",
"N  c #6A6B6C",
"B  c #64676A",
"V  c #6F7274",
"C  c #737374",
"Z  c #747679",
"A  c #7B7B7B",
"S  c #787979",
"D  c #72756E",
"F  c #89857F",
"G  c #0C0183",
"H  c #070889",
"J  c #06168D",
"K  c #08158D",
"L  c #05188D",
"P  c #0C0C96",
"I  c #091798",
"U  c #131090",
"Y  c #0B2199",
"T  c #0A2194",
"R  c #132291",
"E  c #30318A",
"W  c #1A1DAE",
"Q  c #151BA6",
"!  c #1A1EB1",
"~  c #171BB6",
"^  c #1A22B3",
"/  c #282DB8",
"(  c #2527A9",
")  c #403D8A",
"_  c #3847A1",
"`  c #49488F",
"'  c #64648D",
"]  c #7E7F80",
"[  c #121AC4",
"{  c #1C1DC3",
"}  c #161ECD",
"|  c #1C1ECD",
" . c #1516C1",
".. c #141DD3",
"X. c #1B1DD2",
"o. c #181FDB",
"O. c #0F1AD2",
"+. c #211EC8",
"@. c #201AD0",
"#. c #1422C4",
"$. c #1C21C2",
"%. c #1625CC",
"&. c #1B21CD",
"*. c #1929CA",
"=. c #1B36CC",
"-. c #1C23D4",
";. c #192BD2",
":. c #1D25DB",
">. c #1526D1",
",. c #1D3DDB",
"<. c #1B3AD8",
"1. c #2229C7",
"2. c #2932C7",
"3. c #2123D4",
"4. c #383EC9",
"5. c #1E3EE0",
"6. c #1E43C1",
"7. c #1E42DC",
"8. c #244AC6",
"9. c #2047D0",
"0. c #2044DD",
"q. c #244CD3",
"w. c #2352D4",
"e. c #2A5FDE",
"r. c #3B53D4",
"t. c #2A60DF",
"y. c #1E40E1",
"u. c #244EEA",
"i. c #234AE4",
"p. c #2653E5",
"a. c #2A5DE2",
"s. c #2553EA",
"d. c #2A5CEC",
"f. c #2954EB",
"g. c #2A5DF2",
"h. c #2C62E4",
"j. c #2E6AEC",
"k. c #2E68E9",
"l. c #316EED",
"z. c #306DE6",
"x. c #3171EE",
"c. c #3B7DEB",
"v. c #2D64F2",
"b. c #2F6DF5",
"n. c #306FF5",
"m. c #3172F5",
"M. c #367AF5",
"N. c #3A7CF1",
"B. c #4D51C2",
"V. c #4D4EC5",
"C. c #7C7ECF",
"Z. c #4F7DEF",
"A. c #5A7FE9",
"S. c #7C80BB",
"D. c #3D80EB",
"F. c #5B85EA",
"G. c #498AF3",
"H. c #559BF6",
"J. c #5B9FF5",
"K. c #5999F6",
"L. c #5693F3",
"P. c #5CA1F6",
"I. c #5EA4F8",
"U. c #61A5F8",
"Y. c #65A9F9",
"T. c #74BBF9",
"R. c #7BBEF9",
"E. c #77BBF6",
"W. c #6CB0F9",
"Q. c #7EC2F9",
"!. c #7FC2EE",
"~. c #838482",
"^. c #8B888A",
"/. c #8D8E93",
"(. c #949293",
"). c #8E9194",
"_. c #858CBA",
"`. c #8E94B6",
"'. c #AAACAB",
"]. c #AEB2B1",
"[. c #B4B4B4",
"{. c #BDBDBC",
"}. c #B7B7BC",
"|. c #B5B3AE",
" X c #C0BEBD",
".X c #C0BDB7",
"XX c #BDC1BB",
"oX c #C5C6BD",
"OX c #8386C6",
"+X c #999CC2",
"@X c #9EA4C1",
"#X c #B5B9C4",
"$X c #BFBFC0",
"%X c #BAB9C8",
"&X c #BDC1CB",
"*X c #83C4F4",
"=X c #83C5F9",
"-X c #85CAFA",
";X c #87C9F8",
":X c #80C1ED",
">X c #C4C3C2",
",X c #C7C8C6",
/* pixels */
"                                                                                                                                ",
"                                                                                                                                ",
"                                                                                                                                ",
"                                                                                                                                ",
"                                              3 3 3 f f f & f f f f f f f f f f 3                                               ",
"                                              3 $ # # # # $ # $ # $ # # $ # 2 2 3                                               ",
"                                              3 # @ @ @ + % + @ + + @ + + @ + @ 3                                               ",
"                                              3 3 $ $ $ $ $ $ $ $ $ $ $ $ $ $ 2 3                                               ",
"                                      3 3 3 3 B N N N N N N N N N N N N N B B C M $ 3 3 f                                       ",
"                                      k 2 2 $ M F ] A A A A A A A A A A A A A ~.B $ $ 3 j                                       ",
"                                      x @ @ @ b A A S S A S S S S S A A S S A A M # # # j                                       ",
"                                      z @ o o b A S A A A A A A A ] A A A S A A m o o + h                                       ",
"                                      A ] Z Z Z A S A N v v v v c c x x N A A A S C S A ] 2 f 3 3                               ",
"                              3 $ + k '.,X X X(.C S A M @ + @ + @ % + + b A A C /.{.>X,X].k % $ 3                               ",
"                              $ $ o h '.&X X X(.C S ~.b @ @ # @ @ @ @ + b ] Z C /.{.XX>X'.j o # $                               ",
"                              f $ + h '.,X>X X(.D C A b o o o o o o o o b D V N ^.>X,XoX[.l + % &                               ",
"                              4 4 O 6 `.@X`.@X(.F ~.^.Z z z z k z z k z C ^.^.F /.+X+X@X_.a 1 1 6                               ",
"                              X . . : ( 2.1./ OX{.[.[.].[.].].[.].].].].[.[.}.XXS./ 1.2.( y 9 q t                               ",
"                              . * * : ~ o.} [ C.>X.X XXXXXoX{.{..XoX{. X.X{.oXoXOX#.O.X.{ G q e t                               ",
"                              ; - . ; ~ :.} +.C.>XoX{.XX&X.X X X{.{. X X{.{..X,XOX+.X.X.{ H 8 e q                               ",
"                              = * X > ! :...&.C.%X#X#X#X#X#X#X#X#X#X#X#X#X#X#X&XOX1.%.>.#.H q G y                               ",
"                              ; * . 9 ! -.&.&.4.B.B.B.B.B.B.B.B.V.V.B.V.V.B.V.B.r.f.s.g.q.J 8 e t                               ",
"                              = * . > W :.&.-.} [ [ [ [ [ [ [ [ [ [ [ [ [ [ [ [ <.n.M.M.h.K 8 e t                               ",
"                              = - . > W :.&.&.| -.X.-.X.-.X.X.-.-.X.-.X.X.>.X.} y.n.m.m.e.K q e t                               ",
"                              = * . > ! :.&.&.+.| &...| >...} } } } ..| %.X.X.} ,.b.n.n.h.L 8 e r                               ",
"                              ; - . > ! :.&.&.<.7.7.7.7.y.y.0.7.7.7.7.7.7.5.5.7.u.n.n.n.h.L 8 e t                               ",
"                              = - . > ! 3.X.%.u.n.n.m.m.n.n.n.n.b.b.n.n.b.m.b.b.n.n.m.m.e.L 8 e t                               ",
"                              = * . > W :.| %.s.m.n.m.b.n.n.n.m.m.m.m.m.n.m.m.m.n.n.n.m.e.L 8 e t                               ",
"                              = - . > ! -.&.&.p.m.m.n.n.n.n.m.m.b.n.x.b.b.b.b.b.b.b.b.m.t.L 8 e r                               ",
"                              = - . > ! -.| &.u.m.n.n.n.m.n.n.n.n.n.n.x.M.c.c.c.M.x.b.m.t.K 8 e t                               ",
"                              = * . > ! :.&.&.u.m.n.n.n.n.n.n.n.n.n.b.b.H.T.W.E.H.x.m.m.t.L 8 e t                               ",
"                              ; - . > ! :.-.-.i.n.m.n.n.n.n.n.n.b.b.b.b.P.;X*X-XU.x.b.m.e.L 8 e r                               ",
"                              ; * . > W -.&.&.u.m.n.n.n.n.n.n.m.n.n.b.b.P.Q.!.=XU.l.n.m.e.K 8 e q                               ",
"                              = * * , W ;.&.&.p.m.n.n.n.n.n.n.n.n.n.n.b.P.Q.!.=XU.n.v.m.h.K 8 e t                               ",
"                              = - . - G P P P 9.m.m.n.b.b.b.n.n.b.b.n.b.H.=XR.-XL.,.5.0.2.K 0 e t                               ",
"                              = * * * 8 q 0 w 6.m.m.m.m.x.m.m.m.n.n.n.n.H.=XR.-XF.%.} -.[ H 0 e t                               ",
"                              = * . * 7 q 0 0 6.m.m.m.m.m.n.n.m.b.m.m.j.P.Q.Q.=XF.1.| @.+.H 0 e r                               ",
"                              = * * - 7 e q w 6.M.m.m.m.m.m.m.m.m.m.m.n.P.=XQ.=XF.*.} | { G 8 e q                               ",
"                              = * . : y P P P =.s.s.s.f.f.f.p.p.s.p.p.p.L.=XR.=XL.<.<.,.=.H 8 e t                               ",
"                              * * * > Q 3.&.^ *.;.&.&.-.&.&.&.&.-.*.-.#.A.=XR.=XU.v.v.n.a.L 8 e t                               ",
"                              * * * > ! :.:.-.-.| | &.} | &.&.&.&.&.| [ F.Q.R.-XI.m.m.m.h.L 8 e t                               ",
"                              ; * . > ! :.%.| } } %.| | | | X.| &...o.~ A.=X:X-XU.l.n.m.e.K 8 e t                               ",
"                              = - . > ! :.&.&.;.;.;.;.;.;.;.;.;.;.;.-.*.G.T.W.Q.H.x.n.m.e.L 0 e t                               ",
"                              = * . > ^ 3.&.-.i.g.d.g.v.d.d.d.d.h.h.d.d.m.D.D.N.M.n.x.M.e.L 8 e t                               ",
"                              * * . > ! :.| *.s.m.m.M.m.m.m.M.m.m.m.m.m.m.b.b.b.b.n.n.m.t.L 8 e t                               ",
"                              = * . > ! :.| %.p.m.n.n.m.m.n.n.n.b.m.m.b.b.b.b.b.n.n.m.m.t.K 8 e t                               ",
"                              = - . > ! :.| &.u.m.n.b.m.m.b.n.n.b.b.b.m.m.x.x.b.n.b.n.m.t.K 8 e t                               ",
"                              ; * . : W *.{ -.u.m.b.m.n.b.m.m.n.m.m.b.m.D.P.H.H.G.b.b.m.e.K 7 w r                               ",
"                              ; - . > ~ :.3.:.u.n.b.m.n.b.n.n.n.n.n.b.b.I.=X*X=XU.b.m.m.d.I t e y                               ",
"                              = - * : ^ :.| %.p.m.x.n.n.n.n.n.n.b.n.b.b.P.=X:X;XI.m.n.m.t.K 8 e q                               ",
"                              . - * > ~ 3.3.-.s.m.m.m.m.n.n.b.m.b.m.b.l.I.=X*X;XY.m.m.m.h.K q e q                               ",
"                              l s l s R ~ Q Q 7.g.d.s.v.b.x.b.m.n.b.m.m.G.W.Y.W.G.w.w.w.8._ ` ) )                               ",
"                                      s : * : I ;.;.;.7.b.x.b.n.n.b.m.b.l.M.M.N.8.H w H E                                       ",
"                                      6 . X * U 3.X.} ,.b.n.x.b.n.b.m.b.n.l.l.m._ H 0 w i                                       ",
"                                      5 * . : Q 3.-.-.y.n.M.m.m.m.m.m.m.m.n.m.N.9.G 0 e U                                       ",
"                                      6 < X , R 1.$.{ =.h.z.z.z.l.j.v.b.k.n.z.n.8.u u u s                                       ",
"                                              ` 8 q 7 r p p p p T T I Y Y I Y T                                                 ",
"                                              ' . . . . . . . * 7 8 q 0 q t 8 q                                                 ",
"                                              ' . * . . . . . - 7 e e t e q q e                                                 ",
"                                              n . * * * * * * - q G e q e e e q                                                 ",
"                                                                                                                                ",
"                                                                                                                                ",
"                                                                                                                                ",
"                                                                                                                                "
};
